<svg width="2311" height="889" viewBox="0 0 2311 889" fill="none" xmlns="http://www.w3.org/2000/svg">
<g filter="url(#filter0_d_356_5)">
<path d="M1155.5 23.5C1462.46 23.5 1741.37 67.7887 1944.38 140.115C2045.78 176.242 2129.51 219.807 2188.34 269.356C2247.05 318.811 2283.5 376.543 2283.5 440.497C2283.5 504.451 2247.05 562.184 2188.34 611.638C2129.51 661.188 2045.78 704.752 1944.38 740.879C1741.37 813.205 1462.46 857.494 1155.5 857.494C848.54 857.494 569.625 813.205 366.613 740.879C265.21 704.752 181.483 661.188 122.657 611.638C63.9449 562.184 27.5 504.451 27.5 440.497C27.5 376.543 63.9449 318.811 122.657 269.356C181.483 219.807 265.21 176.242 366.613 140.115C569.625 67.7887 848.54 23.5 1155.5 23.5Z" stroke="white" stroke-width="47" shape-rendering="crispEdges"/>
</g>
<path d="M226.654 703.455L225.668 259.481C268.362 220.025 330.984 195.981 330.984 195.981L331.518 259.481H330.984C335.644 245.451 347.663 231.195 356.485 216.713C365.474 202.004 377.125 189.785 391.44 180.055C405.921 170.098 423.897 165.12 445.37 165.12C473.333 165.12 499.133 175.076 522.769 194.99C546.405 214.676 565.297 244.433 579.445 284.259C593.593 323.86 600.667 373.529 600.667 433.269C600.667 491.425 593.76 540.529 579.944 580.581C566.295 620.408 547.653 650.617 524.017 671.209C500.548 691.575 474.249 701.758 445.12 701.758C424.48 701.758 406.92 697.119 392.438 687.841C378.124 678.563 366.389 666.91 357.234 652.88C348.08 638.624 341.089 624.255 336.262 609.772H333.016L367.471 766.749L226.654 703.455ZM330.769 432.59C330.769 463.591 333.931 490.633 340.256 513.714C346.581 536.795 355.736 554.785 367.721 567.683C379.705 580.355 394.269 586.691 411.414 586.691C428.725 586.691 443.372 580.242 455.356 567.344C467.341 554.219 476.412 536.116 482.571 513.035C488.896 489.727 492.059 462.913 492.059 432.59C492.059 402.494 488.979 376.019 482.821 353.164C476.662 330.309 467.591 312.432 455.606 299.534C443.622 286.635 428.891 280.186 411.414 280.186C394.103 280.186 379.455 286.409 367.471 298.855C355.653 311.301 346.581 328.951 340.256 351.806C333.931 374.661 330.769 401.589 330.769 432.59Z" fill="white"/>
<path d="M761.977 703.455C722.529 703.455 688.573 692.593 660.11 670.87C631.813 648.92 610.008 617.919 594.695 577.866C579.382 537.587 571.725 489.954 571.725 434.966C571.725 381.336 579.382 334.269 594.695 293.764C610.008 253.258 631.564 221.691 659.361 199.063C687.324 176.434 720.115 165.12 757.733 165.12C783.033 165.12 806.586 170.664 828.391 181.752C850.362 192.614 869.504 209.019 885.816 230.969C902.294 252.919 915.111 280.526 924.266 313.79C933.421 346.828 937.998 385.523 937.998 429.875V469.588H614.17V379.979H837.878C837.878 359.16 834.549 340.718 827.891 324.652C821.233 308.585 811.995 296.026 800.177 286.975C788.526 277.697 774.96 273.058 759.481 273.058C743.335 273.058 729.02 278.15 716.536 288.333C704.219 298.289 694.565 311.753 687.574 328.725C680.583 345.47 677.005 364.139 676.838 384.731V469.927C676.838 495.724 680.334 518.013 687.324 536.795C694.482 555.577 704.552 570.059 717.535 580.242C730.518 590.425 745.915 595.516 763.725 595.516C775.543 595.516 786.362 593.253 796.183 588.728C806.003 584.202 814.409 577.413 821.4 568.362C828.391 559.31 833.717 548.222 837.379 535.098L935.751 543.923C930.758 576.056 920.521 604.115 905.041 628.102C889.728 651.862 869.92 670.417 845.618 683.768C821.483 696.893 793.603 703.455 761.977 703.455Z" fill="white"/>
<path d="M1096.31 703.455C1057.03 703.455 1023.24 692.141 994.944 669.512C966.814 646.657 945.175 614.977 930.028 574.472C915.048 533.966 907.558 487.351 907.558 434.627C907.558 381.223 915.131 334.382 930.278 294.103C945.591 253.598 967.313 222.031 995.443 199.402C1023.57 176.547 1057.03 165.12 1095.81 165.12C1129.27 165.12 1158.56 173.379 1183.7 189.898C1208.83 206.417 1228.72 229.611 1243.37 259.481C1258.02 289.351 1266.09 324.425 1267.59 364.704H1167.22C1164.39 338.681 1156.9 317.75 1144.75 301.91C1132.76 285.843 1117.03 277.81 1097.56 277.81C1081.08 277.81 1066.68 283.92 1054.37 296.14C1042.22 308.133 1032.73 325.67 1025.9 348.751C1019.08 371.832 1015.67 399.779 1015.67 432.59C1015.67 465.854 1019 494.14 1025.65 517.448C1032.48 540.755 1042.05 558.518 1054.37 570.738C1066.68 582.957 1081.08 589.067 1097.56 589.067C1109.71 589.067 1120.61 585.673 1130.27 578.884C1140.09 572.096 1148.16 562.252 1154.49 549.354C1160.98 536.229 1165.22 520.502 1167.22 502.173H1267.59C1265.92 542 1257.93 577.074 1243.62 607.396C1229.47 637.492 1209.91 661.026 1184.95 677.998C1159.98 694.969 1130.43 703.455 1096.31 703.455Z" fill="white"/>
<path d="M1360.68 703.115C1336.21 703.115 1314.4 697.345 1295.26 685.805C1276.12 674.038 1260.97 656.727 1249.82 633.872C1238.83 610.791 1233.34 582.052 1233.34 547.657C1233.34 518.692 1237.25 494.366 1245.08 474.679C1252.9 454.992 1263.55 439.152 1277.03 427.159C1290.52 415.166 1305.83 406.115 1322.97 400.005C1340.29 393.895 1358.43 389.596 1377.4 387.107C1399.71 383.939 1417.68 380.997 1431.33 378.281C1444.98 375.34 1454.89 371.04 1461.04 365.383C1467.2 359.726 1470.28 351.353 1470.28 340.265V338.229C1470.28 316.732 1465.29 300.1 1455.3 288.333C1445.48 276.566 1431.5 270.682 1413.36 270.682C1394.21 270.682 1378.98 276.453 1367.67 287.993C1356.35 299.308 1348.86 313.564 1345.2 330.761L1246.82 319.9C1251.82 288.219 1261.64 260.839 1276.29 237.758C1290.93 214.45 1309.82 196.574 1332.96 184.128C1356.26 171.456 1383.23 165.12 1413.86 165.12C1435.16 165.12 1455.55 168.514 1475.03 175.303C1494.67 182.091 1512.06 192.614 1527.21 206.87C1542.52 221.126 1554.59 239.455 1563.41 261.857C1572.23 284.033 1576.64 310.622 1576.64 341.623V693.272H1475.78V620.974H1472.78C1466.62 637.266 1458.38 651.635 1448.06 664.081C1437.74 676.301 1425.34 685.918 1410.86 692.933C1396.38 699.721 1379.65 703.115 1360.68 703.115ZM1391.14 603.323C1406.78 603.323 1420.6 599.137 1432.58 590.764C1444.57 582.165 1453.97 570.625 1460.79 556.142C1467.62 541.66 1471.03 525.254 1471.03 506.925V451.598C1467.7 454.54 1463.13 457.255 1457.3 459.745C1451.64 462.007 1445.23 464.157 1438.07 466.194C1430.92 468.004 1423.76 469.701 1416.6 471.285C1409.45 472.643 1402.95 473.887 1397.13 475.019C1384.64 477.508 1373.74 481.468 1364.42 486.899C1355.1 492.33 1347.86 499.684 1342.7 508.962C1337.54 518.013 1334.96 529.327 1334.96 542.905C1334.96 562.592 1340.2 577.64 1350.69 588.049C1361.34 598.232 1374.82 603.323 1391.14 603.323Z" fill="white"/>
<path d="M1777.49 169.982L1777.49 283.584H1546.54L1413.86 165.12L1777.49 169.982ZM1598.97 50.0566H1705.33V536.12C1705.33 549.47 1706.83 559.88 1709.83 567.347C1712.82 574.588 1716.98 579.68 1722.31 582.621C1727.8 585.563 1734.13 587.034 1741.29 587.034C1746.28 587.034 1751.27 586.468 1756.27 585.337C1761.26 583.979 1765.09 582.961 1767.75 582.282L1784.48 689.881C1779.15 692.144 1771.66 694.746 1762.01 697.688C1752.35 700.856 1740.62 702.779 1726.8 703.458C1701.17 704.816 1678.7 700.177 1659.39 689.542C1640.25 678.906 1625.35 662.387 1614.7 639.985C1604.05 617.583 1598.8 589.297 1598.97 555.128V50.0566Z" fill="white"/>
<path d="M1916.06 703.458C1877.28 703.458 1843.24 692.257 1814.94 669.855C1786.81 647.226 1765.09 615.772 1749.78 575.493C1734.46 534.988 1726.8 488.034 1726.8 434.63C1726.8 380.774 1734.46 333.706 1749.78 293.428C1765.09 252.922 1786.81 221.468 1814.94 199.066C1843.24 176.437 1876.78 165.123 1915.56 165.123C1954.34 165.123 1987.8 176.437 2015.93 199.066C2044.23 221.468 2066.03 252.922 2081.34 293.428C2096.66 333.706 2104.31 380.774 2104.31 434.63C2104.31 488.034 2096.66 534.988 2081.34 575.493C2066.03 615.772 2044.23 647.226 2015.93 669.855C1987.8 692.257 1954.84 703.458 1916.06 703.458ZM1916.06 591.446C1933.7 591.446 1948.43 584.658 1960.25 571.081C1972.07 557.277 1980.97 538.496 1986.97 514.735C1993.12 490.975 1996.2 463.934 1996.2 433.612C1996.2 403.289 1993.12 376.248 1986.97 352.488C1980.97 328.728 1972.07 309.946 1960.25 296.143C1948.43 282.339 1933.7 275.438 1916.06 275.438C1898.25 275.438 1883.27 282.339 1871.12 296.143C1859.13 309.946 1850.06 328.728 1843.9 352.488C1837.91 376.248 1834.91 403.289 1834.91 433.612C1834.91 463.934 1837.91 490.975 1843.9 514.735C1850.06 538.496 1859.13 557.277 1871.12 571.081C1883.27 584.658 1898.25 591.446 1916.06 591.446Z" fill="white"/>
<defs>
<filter id="filter0_d_356_5" x="0" y="0" width="2311" height="888.994" filterUnits="userSpaceOnUse" color-interpolation-filters="sRGB">
<feFlood flood-opacity="0" result="BackgroundImageFix"/>
<feColorMatrix in="SourceAlpha" type="matrix" values="0 0 0 0 0 0 0 0 0 0 0 0 0 0 0 0 0 0 127 0" result="hardAlpha"/>
<feOffset dy="4"/>
<feGaussianBlur stdDeviation="2"/>
<feComposite in2="hardAlpha" operator="out"/>
<feColorMatrix type="matrix" values="0 0 0 0 0 0 0 0 0 0 0 0 0 0 0 0 0 0 0.25 0"/>
<feBlend mode="normal" in2="BackgroundImageFix" result="effect1_dropShadow_356_5"/>
<feBlend mode="normal" in="SourceGraphic" in2="effect1_dropShadow_356_5" result="shape"/>
</filter>
</defs>
</svg>
